<?xml version="1.0" encoding="UTF-8"?>
<svg id="Icon" xmlns="http://www.w3.org/2000/svg" viewBox="0 0 1024 1024">
  <defs>
    <style>
      .cls-1 {
        fill: #000;
      }

      .cls-1, .cls-2, .cls-3, .cls-4, .cls-5, .cls-6, .cls-7, .cls-8, .cls-9 {
        stroke-width: 0px;
      }

      .cls-2 {
        fill: #f2f2f2;
      }

      .cls-3 {
        fill: #903;
      }

      .cls-4 {
        fill: #fc0;
      }

      .cls-5 {
        fill: red;
      }

      .cls-6 {
        fill: #009;
      }

      .cls-7 {
        fill: #990;
      }

      .cls-8 {
        fill: #9c0;
      }

      .cls-9 {
        fill: #c60;
      }
    </style>
  </defs>
  <circle id="Background_DON_T_CHANGE_COLOR_" data-name="Background (DON&amp;apos;T CHANGE COLOR)" class="cls-2" cx="512" cy="512" r="512"/>
  <g>
    <g id="Layer_6" data-name="Layer 6">
      <polygon class="cls-8" points="862.31 314.39 791.43 467 725.01 314.39 623.33 314.39 739.76 550.59 739.76 675.75 832.72 675.75 832.72 550.59 957.13 314.39 862.31 314.39"/>
    </g>
    <g id="Layer_5" data-name="Layer 5">
      <path class="cls-4" d="M710.72,559.22v-67.45h0c-.09-.65-20.04-100.2-70.69-143.43h0c-9.28-1.3-19.67-1.95-31.45-1.95s-18.28.56-26.63,1.76c-15.86,2.32-29.5,6.96-40.17,14.94-16.7,11.6-26.25,31.36-26.25,62.16h69.77c0-18.37,1.67-35.44,20.41-38.41,1.95-.28,4.08-.46,6.4-.46,25.79,0,28.85,15.68,28.85,37.39v19.76h-2.5c-38.96-.56-77.28.93-101.87,19.76h0c-16.7,12.8-27,33.58-27,67.17s13.92,71.9,50.47,79.69h0c5.29,1.11,11.04,1.76,17.35,1.76,14.47,0,26.72-2.78,37.2-8.44,11.87-6.4,21.52-16.51,29.59-30.52h1.02l3.06,33.86h66.24c-1.48-15.68-3.53-31.82-3.53-47.5l-.28-.09ZM605.61,567.85c-23.29,0-26.25-22.27-26.25-40.45,0-27,9.28-36.92,24.21-40.82,10.21-2.69,23.1-2.5,37.48-3.15,0,23.01,4.55,65.78-17.81,79.88-4.64,2.88-10.39,4.55-17.63,4.55h0Z"/>
    </g>
    <g id="Layer_4" data-name="Layer 4">
      <path class="cls-6" d="M536.58,463.2h0c-10.21-10.85-24.77-17.63-45.64-17.63s-43.23,7.51-57.89,29.13h-1.02v-133.32h-70.97v363.21h67.45v-28.2h1.02c13.08,24.68,32.75,33.21,59.84,33.21,58.73,0,68.84-52.05,70.6-99.55M490.85,575.36c0,63.92-4.55,90.55-30.15,90.55s-28.67-26.63-28.67-90.55-.46-86,28.67-86c30.71,0,30.15,35.16,30.15,86Z"/>
    </g>
    <g id="Layer_3" data-name="Layer 3">
      <path class="cls-5" d="M361.06,461.44h0c-10.58-4.64-23.01-8.63-37.76-11.69-25.33-5.29-57.15-8.26-97.23-8.26-170.7,0-189.07,52.32-189.07,113.46s21.99,119.21,189.07,119.21,71.25-3.8,97.69-9.65c14.1-3.15,26.81-7.51,37.39-12.15h0c.83-.37,23.38-17.72,15.77-40.73-1.86-5.75-15.77-18.28-15.77-18.28h-79.97c0,19.67-9.18,41.01-55.01,41.01s-58.73-39.89-58.73-66.52h193.8s39.61-43.97,0-106.32l-.19-.09ZM285.73,532.78h-118.38c0-19.02-.93-52.79,58.73-52.79s59.65,30.99,59.65,52.79Z"/>
    </g>
    <g id="Layer_1" data-name="Layer 1">
      <path id="ay" class="cls-7" d="M640.03,348.35l70.69,143.43v-59.93c0-40.45-8.81-75.15-70.69-83.5"/>
      <path id="ba" class="cls-9" d="M560.33,575.83c0-36.27,1.02-86.46-23.75-112.63-16.7,12.8-27,33.58-27,67.17s13.92,71.9,50.47,79.69c.46-11.97.37-23.75.37-34.23"/>
      <path id="r" class="cls-1" d="M972.62,325.53v-2.69h2.6c1.11,0,2.32,0,2.32,1.21s-.46,1.48-1.76,1.48h-3.15M972.62,327.66h1.67l2.6,4.92h2.97l-2.88-4.92c2.13-.28,3.25-1.11,3.25-3.34s-.28-2.5-1.39-3.25c-.83-.56-2.23-.56-3.15-.56h-5.75v11.97h2.6v-4.92h0l.09.09ZM975.03,338.42c6.59,0,11.97-5.38,11.97-11.97s-5.38-11.97-11.97-11.97-11.97,5.38-11.97,11.97,5.38,11.97,11.97,11.97ZM975.03,316.71c5.1,0,9.65,4.08,9.65,9.65s-4.64,9.65-9.65,9.65-9.65-4.08-9.65-9.65,4.55-9.65,9.65-9.65Z"/>
    </g>
    <g id="Layer_2-2" data-name="Layer 2-2">
      <path id="ebtop" class="cls-3" d="M413.1,593.46h-52.05v59c.83-.37,1.67-.74,2.5-1.11,31.17-13.73,47.69-33.68,49.54-57.89"/>
      <path id="ebbottom" class="cls-3" d="M415.05,567.85c2.88-45.64-3.9-84.24-53.99-106.32v106.32h53.99"/>
    </g>
  </g>
</svg>