<?xml version="1.0" encoding="UTF-8"?>
<svg id="Icon" xmlns="http://www.w3.org/2000/svg" viewBox="0 0 1024 1024">
  <defs>
    <style>
      .cls-1 {
        fill: #f5af02;
      }

      .cls-1, .cls-2, .cls-3, .cls-4, .cls-5 {
        stroke-width: 0px;
      }

      .cls-2 {
        fill: #f2f2f2;
      }

      .cls-3 {
        fill: #0064d2;
      }

      .cls-4 {
        fill: #e53238;
      }

      .cls-5 {
        fill: #86b817;
      }
    </style>
  </defs>
  <circle id="Background_DON_T_CHANGE_COLOR_" data-name="Background (DON&amp;apos;T CHANGE COLOR)" class="cls-2" cx="512" cy="512" r="512"/>
  <g>
    <path id="e" class="cls-4" d="M159.84,404.74c-66.99,0-122.84,28.39-122.84,114.22s37.58,110.78,124.61,110.78,109.02-67.45,109.02-67.45h-49.64s-10.67,36.37-62.44,36.37-72.46-28.48-72.46-68.38h189.74v-25.05c0-39.53-25.05-100.39-115.98-100.39h0v-.09ZM158.08,436.75c40.08,0,67.45,24.59,67.45,61.42H87.2c0-39.15,35.72-61.42,70.98-61.42h-.09Z"/>
    <path id="b" class="cls-3" d="M275.73,321.7v264.89c0,15.03-1.11,36.19-1.11,36.19h47.32s1.67-15.12,1.67-29.04c0,0,23.38,36.56,87.03,36.56s112.45-46.48,112.45-113.1-41.75-111.8-112.36-111.8-86.66,35.72-86.66,35.72v-119.41h-48.43.09ZM398.57,438.15c45.46,0,74.41,33.77,74.41,79.05s-33.4,80.35-74.04,80.35-74.69-37.95-74.69-79.89,23.47-79.51,74.41-79.51h-.09Z"/>
    <path id="a" class="cls-1" d="M640.83,404.74c-100.85,0-107.26,55.21-107.26,64.02h50.2s2.6-32.2,53.63-32.2,58.82,15.22,58.82,44.35v10.39h-58.82c-78.12,0-119.41,22.82-119.41,69.22s38.13,70.42,89.72,70.42,92.88-38.78,92.88-38.78c0,15.4,1.21,30.62,1.21,30.62h44.63s-1.76-18.83-1.76-30.9v-104.29c0-68.38-55.21-82.76-103.82-82.76h0v-.09ZM696.22,522.39v13.82c0,18.09-11.13,62.91-76.73,62.91s-51.31-17.91-51.31-38.69c0-37.86,51.87-38.04,128.04-38.04h0Z"/>
    <path id="y" class="cls-5" d="M717.65,413.37h56.41l81,162.28,80.81-162.28h51.12l-147.25,288.92h-53.63l42.49-80.54-111.06-208.39h.09Z"/>
  </g>
</svg>